<svg xmlns="http://www.w3.org/2000/svg" width="72.5" height="55.036" viewBox="0 0 72.5 55.036">
  <g id="Group_1298" data-name="Group 1298" transform="translate(-658.974 -3233.603)">
    <path id="Path_831" data-name="Path 831" d="M725.612,3247.974H708.595v10.94a4.862,4.862,0,0,1-4.862,4.862H681.854v8.508a4.862,4.862,0,0,0,4.862,4.863h21.542l10.061,8.508-2.658-8.508h9.951a4.862,4.862,0,0,0,4.862-4.863v-19.448A4.862,4.862,0,0,0,725.612,3247.974Z" fill="none" stroke="#fff" stroke-miterlimit="10" stroke-width="2"/>
    <path id="Path_832" data-name="Path 832" d="M703.733,3234.6h-38.9a4.862,4.862,0,0,0-4.862,4.862v19.449a4.862,4.862,0,0,0,4.862,4.862h4.255l-3.039,12.155,11.366-12.155h26.315a4.862,4.862,0,0,0,4.862-4.862v-19.449A4.862,4.862,0,0,0,703.733,3234.6Z" fill="none" stroke="#fff" stroke-miterlimit="10" stroke-width="2"/>
  </g>
</svg>
