<svg xmlns="http://www.w3.org/2000/svg" width="61.118" height="65.939" viewBox="0 0 61.118 65.939">
  <g id="Group_1410" data-name="Group 1410" transform="translate(-489.666 -579.411)">
    <path id="Path_817" data-name="Path 817" d="M4675.184,2038.716c-23.47,8.94-34.108,33.644-26.183,55.061" transform="translate(-4135.569 -1448.774)" fill="rgba(0,0,0,0)" stroke="#1d1d1b" stroke-miterlimit="10" stroke-width="2"/>
    <path id="Path_818" data-name="Path 818" d="M4661.539,2034.456c-5.588,3.353-7.823,11.175-2.547,15.6,3.832,3.212,10.551,3.7,18.193-1.071,8.94-5.587,7.823-20.115,7.823-20.115a34.242,34.242,0,0,1-11.175,3.352C4669.669,2032.6,4665.825,2031.884,4661.539,2034.456Z" transform="translate(-4136.454 -1447.867)" fill="rgba(0,0,0,0)" stroke="#1d1d1b" stroke-miterlimit="10" stroke-width="2"/>
    <path id="Path_819" data-name="Path 819" d="M4661.636,2063.156c-6.429,1.057-11.393,7.5-8.121,13.56,2.376,4.4,8.443,7.335,17.305,5.714,10.371-1.9,14.689-15.812,14.689-15.812a34.219,34.219,0,0,1-11.623-1.005C4669.878,2064.428,4666.567,2062.348,4661.636,2063.156Z" transform="translate(-4136.13 -1451.012)" fill="rgba(0,0,0,0)" stroke="#1d1d1b" stroke-miterlimit="10" stroke-width="2"/>
    <path id="Path_820" data-name="Path 820" d="M4645.1,2055.691c.478,6.5-3.25,11.58-11.073,10.462-5.64-.806-9.317-5.89-9.813-14.886-.581-10.527,11.94-17.98,11.94-17.98a34.248,34.248,0,0,0,3.695,11.066C4641.935,2047.975,4644.73,2050.707,4645.1,2055.691Z" transform="translate(-4133.522 -1448.275)" fill="rgba(0,0,0,0)" stroke="#1d1d1b" stroke-miterlimit="10" stroke-width="2"/>
    <path id="Path_821" data-name="Path 821" d="M4633.776,2046.1a22.67,22.67,0,0,0,1.117,10.058c2.235,5.587,7.823,10.058,7.823,10.058" transform="translate(-4134.391 -1449.455)" fill="rgba(0,0,0,0)" stroke="#1d1d1b" stroke-miterlimit="10" stroke-width="2"/>
    <path id="Path_822" data-name="Path 822" d="M4652.254,2070.722s8.941,4.47,13.411,4.47a24.9,24.9,0,0,0,10.058-2.235" transform="translate(-4136.108 -1451.726)" fill="rgba(0,0,0,0)" stroke="#1d1d1b" stroke-miterlimit="10" stroke-width="2"/>
  </g>
</svg>
