<svg xmlns="http://www.w3.org/2000/svg" width="80" height="80" viewBox="0 0 80 80">
  <g id="Group_1629" data-name="Group 1629" transform="translate(-84 -2083)">
    <g id="Group_1386" data-name="Group 1386" transform="translate(9 10.208)">
      <g id="Group_1382" data-name="Group 1382" transform="translate(96 2095.266)">
        <path id="Path_951" data-name="Path 951" d="M2733.612,1912.815a3.322,3.322,0,0,0-3.246,3.334,3.246,3.246,0,0,0,6.491,0A3.321,3.321,0,0,0,2733.612,1912.815Z" transform="translate(-2726.471 -1912.815)" fill="none" stroke="#0b629b" stroke-miterlimit="10" stroke-width="1.2"/>
        <path id="Path_945" data-name="Path 945" d="M2723.073,1957.954a1.3,1.3,0,0,0,1.3,1.3" transform="translate(-2723.073 -1933.848)" fill="none" stroke="#0b629b" stroke-miterlimit="10" stroke-width="1.2"/>
        <path id="Path_947" data-name="Path 947" d="M2729.151,1936.075v22.719a1.3,1.3,0,0,0,1.3,1.3h0a1.3,1.3,0,0,0,1.3-1.3V1947.11h2.6v11.684a1.3,1.3,0,0,0,1.3,1.3h0a1.3,1.3,0,0,0,1.3-1.3v-22.719" transform="translate(-2725.905 -1923.653)" fill="none" stroke="#0b629b" stroke-miterlimit="10" stroke-width="1.2"/>
        <path id="Path_948" data-name="Path 948" d="M2723.073,1944.361V1932.3a3.516,3.516,0,0,1,3.516-3.515h7.248a3.516,3.516,0,0,1,3.516,3.515v1.72" transform="translate(-2723.073 -1920.255)" fill="none" stroke="#0b629b" stroke-miterlimit="10" stroke-width="1.2"/>
      </g>
      <g id="Group_1383" data-name="Group 1383" transform="translate(117.912 2095.266)">
        <path id="Path_940" data-name="Path 940" d="M2849.156,1960.385v9.737a1.3,1.3,0,0,0,1.3,1.3h0a1.3,1.3,0,0,0,1.3-1.3v-9.737h2.6v9.737a1.3,1.3,0,0,0,1.3,1.3h0a1.3,1.3,0,0,0,1.3-1.3v-9.737" transform="translate(-2845.348 -1934.981)" fill="none" stroke="#0b629b" stroke-miterlimit="10" stroke-width="1.2"/>
        <path id="Path_941" data-name="Path 941" d="M2857.575,1945.01a1.3,1.3,0,0,0,1.3-1.3l-3.246-11.414c-.649-2.217-1.574-3.515-3.516-3.515h-7.249c-1.942,0-2.867,1.3-3.516,3.515l-.562,1.985" transform="translate(-2840.785 -1920.255)" fill="none" stroke="#0b629b" stroke-miterlimit="10" stroke-width="1.2"/>
        <path id="Path_942" data-name="Path 942" d="M2846.892,1934.859l-.649,5.193v8.438h11.035l-3.246-8.438-.649-5.193" transform="translate(-2842.435 -1923.087)" fill="none" stroke="#0b629b" stroke-miterlimit="10" stroke-width="1.2"/>
        <path id="Path_949" data-name="Path 949" d="M2733.612,1912.815a3.322,3.322,0,0,0-3.246,3.334,3.246,3.246,0,0,0,6.491,0A3.321,3.321,0,0,0,2733.612,1912.815Z" transform="translate(-2725.378 -1912.815)" fill="none" stroke="#0b629b" stroke-miterlimit="10" stroke-width="1.2"/>
      </g>
      <g id="Group_1384" data-name="Group 1384" transform="translate(109.419 2109.716)">
        <path id="Path_952" data-name="Path 952" d="M2732.584,1912.815a2.27,2.27,0,0,0-2.218,2.279,2.218,2.218,0,0,0,4.436,0A2.27,2.27,0,0,0,2732.584,1912.815Z" transform="translate(-2727.705 -1912.815)" fill="none" stroke="#0b629b" stroke-miterlimit="10" stroke-width="1.2"/>
        <path id="Path_953" data-name="Path 953" d="M2723.073,1957.954a.887.887,0,0,0,.887.887" transform="translate(-2723.073 -1944.169)" fill="none" stroke="#0b629b" stroke-miterlimit="10" stroke-width="1.2"/>
        <path id="Path_954" data-name="Path 954" d="M2747.385,1958.841a.887.887,0,0,0,.887-.887" transform="translate(-2738.512 -1944.169)" fill="none" stroke="#0b629b" stroke-miterlimit="10" stroke-width="1.2"/>
        <path id="Path_955" data-name="Path 955" d="M2729.151,1936.075v11.058c0,.349.732,1.331,1.438,0s.57-5.638,1.222-5.324.8,3.993,1.42,5.324,1.243.349,1.243,0v-11.058" transform="translate(-2726.933 -1925.552)" fill="none" stroke="#0b629b" stroke-miterlimit="10" stroke-width="1.2"/>
        <path id="Path_956" data-name="Path 956" d="M2723.073,1936.718v-6.145c0-.989,1.076-1.791,2.4-1.791h4.953c1.326,0,2.4.8,2.4,1.791v6.145" transform="translate(-2723.073 -1922.932)" fill="none" stroke="#0b629b" stroke-miterlimit="10" stroke-width="1.2"/>
      </g>
    </g>
  </g>
</svg>
