<svg xmlns="http://www.w3.org/2000/svg" width="80" height="80" viewBox="0 0 80 80">
  <g id="Group_1623" data-name="Group 1623" transform="translate(-468 -2083)">
    <g id="Group_1256" data-name="Group 1256" transform="translate(-293.101 1273.143)">
      <g id="Group_1255" data-name="Group 1255" transform="translate(781.1 833.332)">
        <g id="Group_1253" data-name="Group 1253" transform="translate(0 0.488)">
          <g id="Group_1251" data-name="Group 1251" transform="translate(0 0)">
            <rect id="Rectangle_2082" data-name="Rectangle 2082" width="15.176" height="5.519" transform="translate(14.633 3.902) rotate(135)" fill="none" stroke="#0b629b" stroke-miterlimit="10" stroke-width="1.2"/>
          </g>
          <g id="Group_1252" data-name="Group 1252" transform="translate(4.681 5.365)">
            <path id="Path_799" data-name="Path 799" d="M792.962,866.749a5.994,5.994,0,0,1-1.486-2.634l-.983-3.21a4.055,4.055,0,0,0-1.143-2.2" transform="translate(-789.35 -850.164)" fill="none" stroke="#0b629b" stroke-miterlimit="10" stroke-width="1.2"/>
            <path id="Path_800" data-name="Path 800" d="M813.992,880.833l3.777,3.781a2.07,2.07,0,0,1,0,2.926c-.808.808-1.63,1.122-2.439.314" transform="translate(-800.011 -859.736)" fill="none" stroke="#0b629b" stroke-miterlimit="10" stroke-width="1.2"/>
            <path id="Path_801" data-name="Path 801" d="M804.252,843.648s4.253.457,5.4.488" transform="translate(-795.797 -843.648)" fill="none" stroke="#0b629b" stroke-miterlimit="10" stroke-width="1.2"/>
            <path id="Path_802" data-name="Path 802" d="M824.935,875.435l1.287,1.464a2.069,2.069,0,0,1-2.927,2.926l-7.8-7.8" transform="translate(-800.66 -855.924)" fill="none" stroke="#0b629b" stroke-miterlimit="10" stroke-width="1.2"/>
            <path id="Path_803" data-name="Path 803" d="M825.039,884.917a2.07,2.07,0,0,1-2.927,2.927l-1.463-1.463" transform="translate(-802.892 -861.503)" fill="none" stroke="#0b629b" stroke-miterlimit="10" stroke-width="1.2"/>
          </g>
        </g>
        <rect id="Rectangle_2083" data-name="Rectangle 2083" width="15.866" height="5.519" transform="translate(28.779 0) rotate(45)" fill="none" stroke="#0b629b" stroke-miterlimit="10" stroke-width="1.2"/>
        <path id="Path_804" data-name="Path 804" d="M836.6,866.821a4.14,4.14,0,0,0,1.217-2.191l.982-3.209a6.015,6.015,0,0,1,1.472-2.648" transform="translate(-805.112 -844.339)" fill="none" stroke="#0b629b" stroke-miterlimit="10" stroke-width="1.2"/>
        <g id="Group_1254" data-name="Group 1254" transform="translate(7.686 21.344)">
          <path id="Path_805" data-name="Path 805" d="M798.668,874.486a2.069,2.069,0,0,0-2.926-2.927l-.488.488a2.069,2.069,0,0,0,2.926,2.926l.488-.487" transform="translate(-794.647 -870.953)" fill="none" stroke="#0b629b" stroke-miterlimit="10" stroke-width="1.2"/>
          <path id="Path_806" data-name="Path 806" d="M810.729,887.894a2.07,2.07,0,1,1,0,2.927,2.07,2.07,0,0,1,0-2.927" transform="translate(-801.343 -878.02)" fill="none" stroke="#0b629b" stroke-miterlimit="10" stroke-width="1.2"/>
          <path id="Path_807" data-name="Path 807" d="M807.034,880.156a2.069,2.069,0,0,1,2.927,2.926l-1.464,1.463a2.069,2.069,0,0,1-2.926-2.926" transform="translate(-799.111 -874.673)" fill="none" stroke="#0b629b" stroke-miterlimit="10" stroke-width="1.2"/>
          <path id="Path_808" data-name="Path 808" d="M805.29,877.065a2.07,2.07,0,0,0-2.927-2.927l-1.951,1.951a2.07,2.07,0,0,0,2.927,2.927l1.951-1.951" transform="translate(-796.879 -872.069)" fill="none" stroke="#0b629b" stroke-miterlimit="10" stroke-width="1.2"/>
        </g>
        <path id="Path_809" data-name="Path 809" d="M817.711,842.772s-2.956-.051-4.878,0c-1.9.051-2.428.477-2.927.976l-4.823,4.823a2.121,2.121,0,0,0-.327,2.649,2.072,2.072,0,0,0,3.2.333l3.9-3.9,1.463-.488v2.927l9.7,9.7a2.12,2.12,0,0,1,.327,2.649,2.071,2.071,0,0,1-3.2.333l-6.829-6.829" transform="translate(-791.194 -837.406)" fill="none" stroke="#0b629b" stroke-miterlimit="10" stroke-width="1.2"/>
        <path id="Path_810" data-name="Path 810" d="M826.742,853.937c.457.836-.12,2.032-1.29,2.672a2.584,2.584,0,0,1-3.084-.393" transform="translate(-798.955 -842.247)" fill="none" stroke="#0b629b" stroke-miterlimit="10" stroke-width="1.2"/>
      </g>
      <line id="Line_4" data-name="Line 4" y1="1.277" x2="1.277" transform="translate(784.504 843.474)" fill="none" stroke="#0b629b" stroke-miterlimit="10" stroke-width="1.2"/>
      <line id="Line_5" data-name="Line 5" x2="1.277" y2="1.277" transform="translate(816.417 843.474)" fill="none" stroke="#0b629b" stroke-miterlimit="10" stroke-width="1.2"/>
    </g>
  </g>
</svg>
