<svg xmlns="http://www.w3.org/2000/svg" width="66.83" height="58.02" viewBox="0 0 66.83 58.02">
  <g id="Group_1412" data-name="Group 1412" transform="translate(-486.585 -468.06)">
    <g id="Group_1255" data-name="Group 1255" transform="translate(488 469.475)">
      <g id="Group_1253" data-name="Group 1253" transform="translate(0 0.781)">
        <g id="Group_1251" data-name="Group 1251" transform="translate(0 0)">
          <rect id="Rectangle_2082" data-name="Rectangle 2082" width="24.284" height="8.831" transform="translate(23.415 6.244) rotate(135)" fill="rgba(0,0,0,0)" stroke="#1d1d1b" stroke-miterlimit="10" stroke-width="2"/>
        </g>
        <g id="Group_1252" data-name="Group 1252" transform="translate(7.49 8.584)">
          <path id="Path_799" data-name="Path 799" d="M795.129,871.575a9.592,9.592,0,0,1-2.378-4.215l-1.572-5.136c-.5-1.65-.624-2.31-1.828-3.515" transform="translate(-789.35 -845.036)" fill="rgba(0,0,0,0)" stroke="#1d1d1b" stroke-miterlimit="10" stroke-width="2"/>
          <path id="Path_800" data-name="Path 800" d="M813.992,880.833l6.043,6.05a3.311,3.311,0,0,1,0,4.683c-1.294,1.294-2.609,1.795-3.9.5" transform="translate(-791.621 -847.075)" fill="rgba(0,0,0,0)" stroke="#1d1d1b" stroke-miterlimit="10" stroke-width="2"/>
          <path id="Path_801" data-name="Path 801" d="M804.252,843.648s6.8.732,8.641.782" transform="translate(-790.724 -843.648)" fill="rgba(0,0,0,0)" stroke="#1d1d1b" stroke-miterlimit="10" stroke-width="2"/>
          <path id="Path_802" data-name="Path 802" d="M830.6,877.484l2.059,2.342a3.311,3.311,0,1,1-4.683,4.683L815.49,872.021" transform="translate(-791.759 -846.263)" fill="rgba(0,0,0,0)" stroke="#1d1d1b" stroke-miterlimit="10" stroke-width="2"/>
          <path id="Path_803" data-name="Path 803" d="M827.674,884.917a3.312,3.312,0,0,1-4.683,4.684l-2.341-2.341" transform="translate(-792.235 -847.452)" fill="rgba(0,0,0,0)" stroke="#1d1d1b" stroke-miterlimit="10" stroke-width="2"/>
        </g>
      </g>
      <rect id="Rectangle_2083" data-name="Rectangle 2083" width="25.388" height="8.831" transform="translate(46.05 0) rotate(45)" fill="rgba(0,0,0,0)" stroke="#1d1d1b" stroke-miterlimit="10" stroke-width="2"/>
      <path id="Path_804" data-name="Path 804" d="M836.6,871.651a6.624,6.624,0,0,0,1.947-3.505l1.572-5.135a9.626,9.626,0,0,1,2.355-4.237" transform="translate(-786.216 -835.677)" fill="rgba(0,0,0,0)" stroke="#1d1d1b" stroke-miterlimit="10" stroke-width="2"/>
      <g id="Group_1254" data-name="Group 1254" transform="translate(12.299 34.153)">
        <path id="Path_805" data-name="Path 805" d="M801.081,876.606a3.311,3.311,0,0,0-4.683-4.683l-.781.781a3.311,3.311,0,0,0,4.682,4.682l.781-.78" transform="translate(-794.647 -870.953)" fill="rgba(0,0,0,0)" stroke="#1d1d1b" stroke-miterlimit="10" stroke-width="2"/>
        <path id="Path_806" data-name="Path 806" d="M811.092,888.258a3.312,3.312,0,1,1,0,4.683,3.313,3.313,0,0,1,0-4.683" transform="translate(-796.074 -872.458)" fill="rgba(0,0,0,0)" stroke="#1d1d1b" stroke-miterlimit="10" stroke-width="2"/>
        <path id="Path_807" data-name="Path 807" d="M808.276,880.52a3.311,3.311,0,0,1,4.683,4.683l-2.342,2.341a3.311,3.311,0,0,1-4.682-4.683" transform="translate(-795.598 -871.745)" fill="rgba(0,0,0,0)" stroke="#1d1d1b" stroke-miterlimit="10" stroke-width="2"/>
        <path id="Path_808" data-name="Path 808" d="M808.581,879.185A3.312,3.312,0,0,0,803.9,874.5l-3.122,3.122a3.312,3.312,0,0,0,4.684,4.684l3.122-3.122" transform="translate(-795.123 -871.191)" fill="rgba(0,0,0,0)" stroke="#1d1d1b" stroke-miterlimit="10" stroke-width="2"/>
      </g>
      <path id="Path_809" data-name="Path 809" d="M825.68,842.785s-4.731-.082-7.805,0c-3.043.082-3.884.764-4.683,1.562l-7.717,7.717a3.394,3.394,0,0,0-.524,4.239,3.316,3.316,0,0,0,5.119.533l6.244-6.244,2.341-.781v4.683l15.522,15.522a3.392,3.392,0,0,1,.524,4.238,3.314,3.314,0,0,1-5.118.532L818.656,863.86" transform="translate(-783.25 -834.2)" fill="rgba(0,0,0,0)" stroke="#1d1d1b" stroke-miterlimit="10" stroke-width="2"/>
      <path id="Path_810" data-name="Path 810" d="M829.366,853.937c.732,1.337-.193,3.251-2.064,4.276a4.135,4.135,0,0,1-4.934-.629" transform="translate(-784.904 -835.231)" fill="rgba(0,0,0,0)" stroke="#1d1d1b" stroke-miterlimit="10" stroke-width="2"/>
    </g>
    <line id="Line_4" data-name="Line 4" y1="2.043" x2="2.043" transform="translate(493.446 485.704)" fill="none" stroke="#1d1d1b" stroke-miterlimit="10" stroke-width="2"/>
    <line id="Line_5" data-name="Line 5" x2="2.043" y2="2.043" transform="translate(544.512 485.704)" fill="none" stroke="#1d1d1b" stroke-miterlimit="10" stroke-width="2"/>
  </g>
</svg>
