<svg xmlns="http://www.w3.org/2000/svg" width="80" height="80" viewBox="0 0 80 80">
  <g id="Group_1626" data-name="Group 1626" transform="translate(-852 -2083)">
    <g id="Group_1273" data-name="Group 1273" transform="translate(571.635 434.982)">
      <path id="Path_828" data-name="Path 828" d="M340.365,1689.02c0-10-8.955-20-20-20a20,20,0,0,0-20,20c0,11.047,10,20,20,20S340.365,1699.021,340.365,1689.02Z" transform="translate(0 0)" fill="none" stroke="#0b629b" stroke-linecap="round" stroke-linejoin="round" stroke-width="1.2"/>
      <g id="Group_1272" data-name="Group 1272" transform="translate(317.116 1673.366)">
        <path id="Path_829" data-name="Path 829" d="M334.523,1721.9a1.739,1.739,0,1,1-1.739-1.739A1.739,1.739,0,0,1,334.523,1721.9Z" transform="translate(-329.537 -1694.069)" fill="none" stroke="#0b629b" stroke-linecap="round" stroke-miterlimit="10" stroke-width="1.2"/>
        <path id="Path_830" data-name="Path 830" d="M331.758,1698.935h0a.937.937,0,0,1-.964-.775l-2.276-18.724a3.066,3.066,0,0,1,3.24-3.112h0a3.065,3.065,0,0,1,3.239,3.112l-2.275,18.724A.937.937,0,0,1,331.758,1698.935Z" transform="translate(-328.511 -1676.324)" fill="none" stroke="#0b629b" stroke-linecap="round" stroke-miterlimit="10" stroke-width="1.2"/>
      </g>
    </g>
  </g>
</svg>
