<svg xmlns="http://www.w3.org/2000/svg" width="80" height="80" viewBox="0 0 80 80">
  <g id="Group_1625" data-name="Group 1625" transform="translate(-468 -2195)">
    <g id="Group_1261" data-name="Group 1261" transform="translate(-4133.521 189.133)">
      <path id="Path_817" data-name="Path 817" d="M4664.391,2038.716c-14.667,5.588-21.316,21.027-16.363,34.412" transform="translate(-9.611 -4.261)" fill="none" stroke="#0b629b" stroke-miterlimit="10" stroke-width="1.2"/>
      <path id="Path_818" data-name="Path 818" d="M4659.461,2032.36c-3.493,2.1-4.889,6.984-1.592,9.749,2.395,2.007,6.594,2.315,11.37-.669,5.587-3.492,4.889-12.571,4.889-12.571a21.4,21.4,0,0,1-6.984,2.1C4664.542,2031.2,4662.14,2030.753,4659.461,2032.36Z" transform="translate(-13.761 0)" fill="none" stroke="#0b629b" stroke-miterlimit="10" stroke-width="1.2"/>
      <path id="Path_819" data-name="Path 819" d="M4658.2,2063.088c-4.018.66-7.12,4.689-5.075,8.474,1.485,2.749,5.276,4.584,10.815,3.572,6.481-1.185,9.18-9.882,9.18-9.882a21.391,21.391,0,0,1-7.264-.628C4663.353,2063.883,4661.284,2062.583,4658.2,2063.088Z" transform="translate(-12.239 -14.756)" fill="none" stroke="#0b629b" stroke-miterlimit="10" stroke-width="1.2"/>
      <path id="Path_820" data-name="Path 820" d="M4637.255,2047.289c.3,4.062-2.031,7.237-6.92,6.539-3.525-.5-5.823-3.681-6.133-9.3-.363-6.579,7.462-11.237,7.462-11.237a21.4,21.4,0,0,0,2.31,6.916C4635.279,2042.467,4637.026,2044.175,4637.255,2047.289Z" transform="translate(0 -1.912)" fill="none" stroke="#0b629b" stroke-miterlimit="10" stroke-width="1.2"/>
      <path id="Path_821" data-name="Path 821" d="M4633.721,2046.1a14.17,14.17,0,0,0,.7,6.286,18.2,18.2,0,0,0,4.889,6.286" transform="translate(-4.084 -7.456)" fill="none" stroke="#0b629b" stroke-miterlimit="10" stroke-width="1.2"/>
      <path id="Path_822" data-name="Path 822" d="M4652.254,2070.722s5.588,2.794,8.381,2.794a15.561,15.561,0,0,0,6.286-1.4" transform="translate(-12.142 -18.108)" fill="none" stroke="#0b629b" stroke-miterlimit="10" stroke-width="1.2"/>
    </g>
  </g>
</svg>
