<svg xmlns="http://www.w3.org/2000/svg" width="60.942" height="66.348" viewBox="0 0 60.942 66.348">
  <g id="Group_1258" data-name="Group 1258" transform="translate(-1622.935 -2145.844)">
    <path id="Path_811" data-name="Path 811" d="M1682.877,2216.965h-58.942a7.114,7.114,0,0,1,7.114-7.114h44.715a7.113,7.113,0,0,1,7.113,7.114Z" transform="translate(0.001 -5.774)" fill="rgba(0,0,0,0)" stroke="#1d1d1b" stroke-miterlimit="10" stroke-width="2"/>
    <g id="Group_1257" data-name="Group 1257" transform="translate(1641.203 2147.187)">
      <rect id="Rectangle_2084" data-name="Rectangle 2084" width="8.13" height="20.325" transform="translate(12.791 9.075) rotate(26.744)" fill="rgba(0,0,0,0)" stroke="#1d1d1b" stroke-miterlimit="10" stroke-width="2"/>
      <rect id="Rectangle_2085" data-name="Rectangle 2085" width="12.195" height="4.065" transform="translate(1.829 26.311) rotate(26.745)" fill="rgba(0,0,0,0)" stroke="#1d1d1b" stroke-miterlimit="10" stroke-width="2"/>
      <rect id="Rectangle_2086" data-name="Rectangle 2086" width="4.065" height="6.097" transform="matrix(0.893, 0.45, -0.45, 0.893, 17.35, 4.545)" fill="rgba(0,0,0,0)" stroke="#1d1d1b" stroke-miterlimit="10" stroke-width="2"/>
      <rect id="Rectangle_2087" data-name="Rectangle 2087" width="8.13" height="4.065" transform="translate(17.364 0) rotate(26.744)" fill="rgba(0,0,0,0)" stroke="#1d1d1b" stroke-miterlimit="10" stroke-width="2"/>
    </g>
    <path id="Path_812" data-name="Path 812" d="M1663.8,2193.06a15.243,15.243,0,0,0-15.243,15.244h30.487A15.243,15.243,0,0,0,1663.8,2193.06Z" transform="translate(-2.269 -4.226)" fill="rgba(0,0,0,0)" stroke="#1d1d1b" stroke-miterlimit="10" stroke-width="2"/>
    <path id="Path_813" data-name="Path 813" d="M1658.61,2173.093c.342-.033.689-.052,1.04-.052a10.158,10.158,0,0,1,7.1,17.426,15.187,15.187,0,0,1,9.217,4.818,20.3,20.3,0,0,0-12.206-31.99" transform="translate(-3.194 -1.484)" fill="rgba(0,0,0,0)" stroke="#1d1d1b" stroke-miterlimit="10" stroke-width="2"/>
    <path id="Path_814" data-name="Path 814" d="M1654.334,2195.3H1634.01v6.1h14.977a15.3,15.3,0,0,1,5.124-5.63C1653.72,2195.634,1654.7,2195.477,1654.334,2195.3Z" transform="translate(-0.928 -4.432)" fill="rgba(0,0,0,0)" stroke="#1d1d1b" stroke-miterlimit="10" stroke-width="2"/>
    <path id="Path_815" data-name="Path 815" d="M1667.178,2199.57a2.032,2.032,0,1,1-2.032-2.032A2.033,2.033,0,0,1,1667.178,2199.57Z" transform="translate(-3.61 -4.639)" fill="rgba(0,0,0,0)" stroke="#1d1d1b" stroke-miterlimit="10" stroke-width="2"/>
  </g>
</svg>
