<svg xmlns="http://www.w3.org/2000/svg" width="80" height="80" viewBox="0 0 80 80">
  <g id="Group_1624" data-name="Group 1624" transform="translate(-84 -2195)">
    <g id="Group_1258" data-name="Group 1258" transform="translate(-1518.936 66.813)">
      <path id="Path_811" data-name="Path 811" d="M1660.771,2214.3h-36.836a4.446,4.446,0,0,1,4.446-4.446h27.945a4.445,4.445,0,0,1,4.445,4.446Z" transform="translate(0 -27.11)" fill="none" stroke="#0b629b" stroke-miterlimit="10" stroke-width="1.2"/>
      <g id="Group_1257" data-name="Group 1257" transform="translate(1634.727 2147.187)">
        <rect id="Rectangle_2084" data-name="Rectangle 2084" width="5.081" height="12.702" transform="translate(7.994 5.672) rotate(26.744)" fill="none" stroke="#0b629b" stroke-miterlimit="10" stroke-width="1.2"/>
        <rect id="Rectangle_2085" data-name="Rectangle 2085" width="7.621" height="2.54" transform="translate(1.143 16.443) rotate(26.745)" fill="none" stroke="#0b629b" stroke-miterlimit="10" stroke-width="1.2"/>
        <rect id="Rectangle_2086" data-name="Rectangle 2086" width="2.54" height="3.811" transform="matrix(0.893, 0.45, -0.45, 0.893, 10.843, 2.84)" fill="none" stroke="#0b629b" stroke-miterlimit="10" stroke-width="1.2"/>
        <rect id="Rectangle_2087" data-name="Rectangle 2087" width="5.081" height="2.54" transform="translate(10.852 0) rotate(26.744)" fill="none" stroke="#0b629b" stroke-miterlimit="10" stroke-width="1.2"/>
      </g>
      <path id="Path_812" data-name="Path 812" d="M1658.088,2193.061a9.526,9.526,0,0,0-9.526,9.527h19.053A9.526,9.526,0,0,0,1658.088,2193.061Z" transform="translate(-10.654 -19.846)" fill="none" stroke="#0b629b" stroke-miterlimit="10" stroke-width="1.2"/>
      <path id="Path_813" data-name="Path 813" d="M1658.611,2169.419c.214-.021.43-.032.65-.032a6.348,6.348,0,0,1,4.437,10.89,9.491,9.491,0,0,1,5.76,3.011,12.685,12.685,0,0,0-7.628-19.992" transform="translate(-15.001 -6.969)" fill="none" stroke="#0b629b" stroke-miterlimit="10" stroke-width="1.2"/>
      <path id="Path_814" data-name="Path 814" d="M1646.712,2195.3h-12.7v3.811h9.36a9.563,9.563,0,0,1,3.2-3.519C1646.328,2195.508,1646.942,2195.41,1646.712,2195.3Z" transform="translate(-4.359 -20.814)" fill="none" stroke="#0b629b" stroke-miterlimit="10" stroke-width="1.2"/>
      <path id="Path_815" data-name="Path 815" d="M1665.654,2198.808a1.27,1.27,0,1,1-1.27-1.27A1.27,1.27,0,0,1,1665.654,2198.808Z" transform="translate(-16.95 -21.783)" fill="none" stroke="#0b629b" stroke-miterlimit="10" stroke-width="1.2"/>
    </g>
  </g>
</svg>
