<svg xmlns="http://www.w3.org/2000/svg" width="66.003" height="64.092" viewBox="0 0 66.003 64.092">
  <g id="Group_1414" data-name="Group 1414" transform="translate(-871.999 -354.194)">
    <g id="Group_1239" data-name="Group 1239" transform="translate(873 399.749)">
      <path id="Path_773" data-name="Path 773" d="M581.329,1482.006l-7.6,12.417-7.844-12.417-24.158,9.857v2.56a5.12,5.12,0,0,0,5.12,5.12h53.762a5.12,5.12,0,0,0,5.12-5.12v-2.56Z" transform="translate(-541.724 -1482.006)" fill="rgba(0,0,0,0)" stroke="#1d1d1b" stroke-linejoin="round" stroke-width="2"/>
      <path id="Path_774" data-name="Path 774" d="M576.974,1487.534Z" transform="translate(-544.972 -1475.117)" fill="rgba(0,0,0,0)" stroke="#1d1d1b" stroke-linejoin="round" stroke-width="2"/>
    </g>
    <g id="Group_1241" data-name="Group 1241" transform="translate(890.92 355.194)">
      <path id="Path_777" data-name="Path 777" d="M561.986,1449.007a22.642,22.642,0,0,0-.522,4.8c0,9.94,6.3,18,14.081,18s14.081-8.057,14.081-18a22.639,22.639,0,0,0-.522-4.8,21.065,21.065,0,0,0-1.109-3.6" transform="translate(-561.464 -1430.191)" fill="rgba(0,0,0,0)" stroke="#1d1d1b" stroke-miterlimit="10" stroke-width="2"/>
      <path id="Path_778" data-name="Path 778" d="M552.331,1442.973s3.184-6.446,5.772-5.393c1.821.741,4.111,1.588,7.1,2.6,3.193,1.08,7.343,2.329,11.224,3.275,3.362.823,4.148.591,4.148-.872a14.5,14.5,0,0,0-14.8-14.092c-9.264,0-13.445,7.876-13.445,14.485a23.177,23.177,0,0,1-.178,4.708" transform="translate(-551.695 -1428.488)" fill="rgba(0,0,0,0)" stroke="#1d1d1b" stroke-miterlimit="10" stroke-width="2"/>
      <line id="Line_2" data-name="Line 2" y2="6.4" transform="translate(21.761 39.051)" fill="none" stroke="#1d1d1b" stroke-linejoin="round" stroke-width="2"/>
      <line id="Line_3" data-name="Line 3" y2="6.4" transform="translate(6.4 39.051)" fill="none" stroke="#1d1d1b" stroke-linejoin="round" stroke-width="2"/>
    </g>
  </g>
</svg>
