<svg xmlns="http://www.w3.org/2000/svg" width="80" height="80" viewBox="0 0 80 80">
  <g id="Group_1622" data-name="Group 1622" transform="translate(-468 -1971)">
    <g id="Group_1242" data-name="Group 1242" transform="translate(-53.725 562.512)">
      <g id="Group_1239" data-name="Group 1239" transform="translate(541.724 1457.662)">
        <path id="Path_773" data-name="Path 773" d="M566.475,1482.006l-4.752,7.76-4.9-7.76-15.1,6.16v1.6a3.2,3.2,0,0,0,3.2,3.2h33.6a3.2,3.2,0,0,0,3.2-3.2v-1.6Z" transform="translate(-541.724 -1482.141)" fill="none" stroke="#0b629b" stroke-linejoin="round" stroke-width="1.2"/>
        <path id="Path_774" data-name="Path 774" d="M576.974,1487.534Z" transform="translate(-556.975 -1479.91)" fill="none" stroke="#0b629b" stroke-linejoin="round" stroke-width="1.2"/>
      </g>
      <g id="Group_1241" data-name="Group 1241" transform="translate(546.524 1428.488)">
        <path id="Path_777" data-name="Path 777" d="M561.79,1447.808a16.068,16.068,0,0,0-.326,3.2c0,6.627,3.94,12,8.8,12s8.8-5.372,8.8-12a16.068,16.068,0,0,0-.326-3.2,14.753,14.753,0,0,0-.693-2.4" transform="translate(-555.064 -1435.808)" fill="none" stroke="#0b629b" stroke-miterlimit="10" stroke-width="1.2"/>
        <path id="Path_778" data-name="Path 778" d="M580.1,1465.693s.478-.5.478-9.7c0-12.548-6.8-27.5-15.2-27.5s-15.2,14.955-15.2,27.5c0,9.2.333,9.7.333,9.7" transform="translate(-550.184 -1432.587)" fill="none" stroke="#0b629b" stroke-miterlimit="10" stroke-width="1.2"/>
        <line id="Line_2" data-name="Line 2" y2="4" transform="translate(19.999 25.599)" fill="none" stroke="#0b629b" stroke-linejoin="round" stroke-width="1.2"/>
        <line id="Line_3" data-name="Line 3" y2="4" transform="translate(10.399 25.599)" fill="none" stroke="#0b629b" stroke-linejoin="round" stroke-width="1.2"/>
      </g>
    </g>
  </g>
</svg>
