<svg xmlns="http://www.w3.org/2000/svg" width="66.024" height="63.893" viewBox="0 0 66.024 63.893">
  <g id="Group_1418" data-name="Group 1418" transform="translate(-873.997 -578.832)">
    <g id="Group_1347" data-name="Group 1347" transform="translate(874.997 579.832)">
      <path id="Path_928" data-name="Path 928" d="M923.8,2286.135l-.842-2.527H903.268l-.843,2.527a9.451,9.451,0,0,1-1.707,3.065h0a10.242,10.242,0,0,0-2.374,6.557v35.678h29.54v-35.678a10.242,10.242,0,0,0-2.374-6.557h0A9.452,9.452,0,0,1,923.8,2286.135Z" transform="translate(-898.344 -2269.542)" fill="rgba(0,0,0,0)" stroke="#1d1d1b" stroke-miterlimit="10" stroke-width="2"/>
      <rect id="Rectangle_2179" data-name="Rectangle 2179" width="29.54" height="14.066" rx="1.5" fill="rgba(0,0,0,0)" stroke="#1d1d1b" stroke-miterlimit="10" stroke-width="2"/>
      <g id="Group_1346" data-name="Group 1346" transform="translate(4.22 2.11)">
        <line id="Line_28" data-name="Line 28" y2="9.847" fill="none" stroke="#1d1d1b" stroke-miterlimit="10" stroke-width="2"/>
        <line id="Line_29" data-name="Line 29" y2="9.847" transform="translate(4.22)" fill="none" stroke="#1d1d1b" stroke-miterlimit="10" stroke-width="2"/>
        <line id="Line_30" data-name="Line 30" y2="9.847" transform="translate(8.44)" fill="none" stroke="#1d1d1b" stroke-miterlimit="10" stroke-width="2"/>
        <line id="Line_31" data-name="Line 31" y2="9.847" transform="translate(12.66)" fill="none" stroke="#1d1d1b" stroke-miterlimit="10" stroke-width="2"/>
        <line id="Line_32" data-name="Line 32" y2="9.847" transform="translate(16.88)" fill="none" stroke="#1d1d1b" stroke-miterlimit="10" stroke-width="2"/>
        <line id="Line_33" data-name="Line 33" y2="9.847" transform="translate(21.1)" fill="none" stroke="#1d1d1b" stroke-miterlimit="10" stroke-width="2"/>
      </g>
      <rect id="Rectangle_2180" data-name="Rectangle 2180" width="21.1" height="23.913" transform="translate(8.44 28.836)" fill="rgba(0,0,0,0)" stroke="#1d1d1b" stroke-miterlimit="10" stroke-width="2"/>
      <line id="Line_34" data-name="Line 34" x2="16.88" transform="translate(10.55 33.056)" fill="none" stroke="#1d1d1b" stroke-miterlimit="10" stroke-width="2"/>
      <line id="Line_35" data-name="Line 35" x2="16.88" transform="translate(10.55 38.683)" fill="none" stroke="#1d1d1b" stroke-miterlimit="10" stroke-width="2"/>
      <line id="Line_36" data-name="Line 36" x2="7.033" transform="translate(10.55 44.309)" fill="none" stroke="#1d1d1b" stroke-miterlimit="10" stroke-width="2"/>
    </g>
    <g id="Group_1350" data-name="Group 1350" transform="translate(909.151 605.856)">
      <g id="Group_1348" data-name="Group 1348" transform="translate(0 18.15)">
        <path id="Path_929" data-name="Path 929" d="M952.013,2331.8c-8.141,2.566-15.78,1.348-17.064-2.723s4.276-9.45,12.416-12.016,15.781-1.349,17.064,2.721S960.154,2329.23,952.013,2331.8Z" transform="translate(-934.766 -2315.713)" fill="rgba(0,0,0,0)" stroke="#1d1d1b" stroke-miterlimit="10" stroke-width="2"/>
        <line id="Line_37" data-name="Line 37" x1="3.591" y1="11.39" transform="translate(12.6 1.344)" fill="none" stroke="#1d1d1b" stroke-miterlimit="10" stroke-width="2"/>
      </g>
      <g id="Group_1349" data-name="Group 1349" transform="translate(3.713)">
        <path id="Path_930" data-name="Path 930" d="M938.74,2317.613c-.206-3.539,1.684-8.489,5.289-13.031,5.306-6.686,12.318-9.955,15.661-7.3,3.034,2.408,2,8.866-2.18,15.038" transform="translate(-938.725 -2296.358)" fill="rgba(0,0,0,0)" stroke="#1d1d1b" stroke-miterlimit="10" stroke-width="2"/>
        <line id="Line_38" data-name="Line 38" x1="9.354" y1="7.424" transform="translate(5.304 8.223)" fill="none" stroke="#1d1d1b" stroke-miterlimit="10" stroke-width="2"/>
      </g>
    </g>
  </g>
</svg>
