<svg xmlns="http://www.w3.org/2000/svg" width="66.002" height="66.002" viewBox="0 0 66.002 66.002">
  <g id="Group_1416" data-name="Group 1416" transform="translate(-871.996 -466)">
    <path id="Path_828" data-name="Path 828" d="M364.364,1701.02c0-16-14.327-32-32-32a32,32,0,0,0-32,32c0,17.673,16,32,32,32S364.364,1717.02,364.364,1701.02Z" transform="translate(572.635 -1202.018)" fill="rgba(0,0,0,0)" stroke="#1d1d1b" stroke-linecap="round" stroke-linejoin="round" stroke-width="2"/>
    <g id="Group_1272" data-name="Group 1272" transform="translate(899.802 473.959)">
      <path id="Path_829" data-name="Path 829" d="M336.61,1722.941a2.782,2.782,0,1,1-2.782-2.782A2.782,2.782,0,0,1,336.61,1722.941Z" transform="translate(-328.632 -1678.418)" fill="rgba(0,0,0,0)" stroke="#1d1d1b" stroke-linecap="round" stroke-miterlimit="10" stroke-width="2"/>
      <path id="Path_830" data-name="Path 830" d="M333.707,1712.5h0a1.5,1.5,0,0,1-1.542-1.24l-3.641-29.957c-.207-2.692,2.173-4.979,5.183-4.979h0c3.01,0,5.39,2.287,5.182,4.979l-3.64,29.957A1.5,1.5,0,0,1,333.707,1712.5Z" transform="translate(-328.511 -1676.324)" fill="rgba(0,0,0,0)" stroke="#1d1d1b" stroke-linecap="round" stroke-miterlimit="10" stroke-width="2"/>
    </g>
  </g>
</svg>
