<svg id="Group_1203" data-name="Group 1203" xmlns="http://www.w3.org/2000/svg" width="333.953" height="80" viewBox="0 0 333.953 80">
  <path id="Path_741" data-name="Path 741" d="M0,44.3l5.2-7.669a54.4,54.4,0,0,0,7.773,4.486,19.5,19.5,0,0,0,8.388,1.883,13.236,13.236,0,0,0,4.108-.584,10.343,10.343,0,0,0,3.013-1.508,6.2,6.2,0,0,0,1.849-2.12,5.144,5.144,0,0,0,.617-2.362,3.776,3.776,0,0,0-.925-2.57,6.957,6.957,0,0,0-2.464-1.744,19.876,19.876,0,0,0-3.63-1.165q-2.09-.477-4.349-.89-1.5-.276-3.492-.65a38.264,38.264,0,0,1-4.108-1.03A24.728,24.728,0,0,1,7.805,26.67,15.239,15.239,0,0,1,4.108,24a12.344,12.344,0,0,1-2.638-3.836,12.76,12.76,0,0,1-.993-5.238A13.734,13.734,0,0,1,2.26,7.636,13.472,13.472,0,0,1,6.813,3.048,19.077,19.077,0,0,1,12.976.686,32.951,32.951,0,0,1,19.515,0a34.515,34.515,0,0,1,5.616.412,25.2,25.2,0,0,1,4.586,1.2A25.763,25.763,0,0,1,33.859,3.6c1.347.8,2.8,1.744,4.35,2.844l-5.342,7.53A34.606,34.606,0,0,0,26.019,10.2,18.648,18.648,0,0,0,19.1,8.9a14.858,14.858,0,0,0-2.808.307,12.262,12.262,0,0,0-2.979.992,7.291,7.291,0,0,0-2.327,1.749,3.773,3.773,0,0,0-.925,2.566,3.332,3.332,0,0,0,1.095,2.533,8.794,8.794,0,0,0,2.809,1.712,25.821,25.821,0,0,0,3.765,1.164q2.055.485,3.973.96,1.437.344,3.389.686a37.384,37.384,0,0,1,4.039.956,25.237,25.237,0,0,1,4.143,1.647,13.92,13.92,0,0,1,3.664,2.635,12.235,12.235,0,0,1,2.6,3.972,14.775,14.775,0,0,1,.992,5.715,15.641,15.641,0,0,1-1.37,6.782,12.576,12.576,0,0,1-3.9,4.756,17.89,17.89,0,0,1-6.026,2.843,29.245,29.245,0,0,1-7.738.96,36.194,36.194,0,0,1-6.882-.584,30,30,0,0,1-5.444-1.573,29.64,29.64,0,0,1-4.656-2.365Q2.325,45.949,0,44.3Z" transform="translate(0 0)" fill="#1d1d1b"/>
  <path id="Path_742" data-name="Path 742" d="M137.931,1V51.06h-9.586V25.726L112.664,44.557,97.052,25.726V51.06H87.466V1h.615l24.583,28.9L137.315,1Z" transform="translate(-15.911 -0.183)" fill="#1d1d1b"/>
  <path id="Path_743" data-name="Path 743" d="M183.473,51.06,209.083,1h.958L235.652,51.06H225.244l-3.9-7.872H197.715l-3.834,7.872Zm18.9-16.228h14.312L209.562,19.7Z" transform="translate(-33.376 -0.183)" fill="#1d1d1b"/>
  <path id="Path_744" data-name="Path 744" d="M288.9,51.046h-9.585V.924h22.771a18.863,18.863,0,0,1,7.031,1.266,15.644,15.644,0,0,1,5.452,3.559,16.276,16.276,0,0,1,3.534,5.479,18.621,18.621,0,0,1,1.269,6.95,17.377,17.377,0,0,1-2.848,9.928,15.887,15.887,0,0,1-7.579,6.1q6.319,8.353,12.482,16.844H309.991q-3.005-3.9-5.871-7.872t-5.732-8.081H288.9Zm0-24.444h13.174a7.788,7.788,0,0,0,2.694-.515,6.988,6.988,0,0,0,2.493-1.577,8.6,8.6,0,0,0,1.808-2.635,8.851,8.851,0,0,0,.717-3.7,14.909,14.909,0,0,0-.272-2.6A8.579,8.579,0,0,0,308.42,12.7a7.116,7.116,0,0,0-2.32-2.329,7.428,7.428,0,0,0-4.027-.956H288.9Z" transform="translate(-50.811 -0.168)" fill="#1d1d1b"/>
  <path id="Path_745" data-name="Path 745" d="M399.7,9.414H385.39V51.046H375.8V9.414H361.422V.924H399.7Z" transform="translate(-65.747 -0.168)" fill="#1d1d1b"/>
  <path id="Path_746" data-name="Path 746" d="M122.5,93.165v1.888h-8.021V83.916h2.131v9.249Z" transform="translate(-20.826 -15.265)" fill="#1d1d1b"/>
  <path id="Path_747" data-name="Path 747" d="M134.676,95.056h-2.13V83.931h2.13Z" transform="translate(-24.112 -15.268)" fill="#1d1d1b"/>
  <path id="Path_748" data-name="Path 748" d="M146.877,85.8v2.754h5.37v1.961h-5.37v4.535h-2.131V83.916h8.186V85.8Z" transform="translate(-26.331 -15.265)" fill="#1d1d1b"/>
  <path id="Path_749" data-name="Path 749" d="M165.255,85.8v2.782h5.387v1.932h-5.387v2.619h6.071v1.917h-8.2V83.916h8.2V85.8Z" transform="translate(-29.674 -15.265)" fill="#1d1d1b"/>
  <path id="Path_750" data-name="Path 750" d="M204.749,92.275a5.4,5.4,0,0,1-.9,1.209,5.931,5.931,0,0,1-1.179.927,5.855,5.855,0,0,1-1.4.6,5.7,5.7,0,0,1-1.561.212,5.515,5.515,0,0,1-2.237-.457,5.82,5.82,0,0,1-1.833-1.238,5.907,5.907,0,0,1-1.242-1.835,5.717,5.717,0,0,1,0-4.473,5.9,5.9,0,0,1,1.242-1.834,5.808,5.808,0,0,1,1.833-1.239,5.529,5.529,0,0,1,2.237-.457,5.67,5.67,0,0,1,1.561.213,5.82,5.82,0,0,1,1.4.6,6.084,6.084,0,0,1,1.179.927,5.607,5.607,0,0,1,.9,1.2l-1.994.805a4.427,4.427,0,0,0-.57-.682,4.038,4.038,0,0,0-.722-.564,3.607,3.607,0,0,0-.838-.38,2.982,2.982,0,0,0-.914-.139,3.282,3.282,0,0,0-1.421.315,3.719,3.719,0,0,0-1.15.825,4.057,4.057,0,0,0-.776,1.214,3.746,3.746,0,0,0,0,2.88,4.074,4.074,0,0,0,.776,1.205,3.815,3.815,0,0,0,1.15.83,3.29,3.29,0,0,0,1.421.31,2.982,2.982,0,0,0,.914-.139,3.574,3.574,0,0,0,.838-.38,3.911,3.911,0,0,0,.722-.568,4.8,4.8,0,0,0,.57-.695Z" transform="translate(-35.281 -15.224)" fill="#1d1d1b"/>
  <path id="Path_751" data-name="Path 751" d="M223.43,93.165v1.888h-8.02V83.916h2.13v9.249Z" transform="translate(-39.186 -15.265)" fill="#1d1d1b"/>
  <path id="Path_752" data-name="Path 752" d="M235.6,95.056h-2.131V83.931H235.6Z" transform="translate(-42.471 -15.268)" fill="#1d1d1b"/>
  <path id="Path_753" data-name="Path 753" d="M255.122,95.056,247.8,88.437v6.619h-2.13V83.931h.228l7.319,6.729V83.931h2.129V95.056Z" transform="translate(-44.691 -15.268)" fill="#1d1d1b"/>
  <path id="Path_754" data-name="Path 754" d="M269.229,95.056H267.1V83.931h2.13Z" transform="translate(-48.589 -15.268)" fill="#1d1d1b"/>
  <path id="Path_755" data-name="Path 755" d="M289.362,92.275a5.4,5.4,0,0,1-.9,1.209,5.93,5.93,0,0,1-1.179.927,5.863,5.863,0,0,1-1.4.6,5.7,5.7,0,0,1-1.561.212,5.516,5.516,0,0,1-2.237-.457,5.816,5.816,0,0,1-1.832-1.238,5.909,5.909,0,0,1-1.243-1.835,5.726,5.726,0,0,1,0-4.473,5.906,5.906,0,0,1,1.243-1.834,5.8,5.8,0,0,1,1.832-1.239,5.53,5.53,0,0,1,2.237-.457,5.674,5.674,0,0,1,1.561.213,5.828,5.828,0,0,1,1.4.6,6.083,6.083,0,0,1,1.179.927,5.607,5.607,0,0,1,.9,1.2l-1.994.805a4.422,4.422,0,0,0-.569-.682,4.045,4.045,0,0,0-.723-.564,3.578,3.578,0,0,0-.838-.38,2.98,2.98,0,0,0-.913-.139,3.286,3.286,0,0,0-1.422.315,3.719,3.719,0,0,0-1.15.825,4.057,4.057,0,0,0-.776,1.214,3.745,3.745,0,0,0,0,2.88,4.074,4.074,0,0,0,.776,1.205,3.815,3.815,0,0,0,1.15.83,3.294,3.294,0,0,0,1.422.31,2.98,2.98,0,0,0,.913-.139,3.545,3.545,0,0,0,.838-.38,3.917,3.917,0,0,0,.723-.568,4.8,4.8,0,0,0,.569-.695Z" transform="translate(-50.673 -15.224)" fill="#1d1d1b"/>
</svg>
