<svg xmlns="http://www.w3.org/2000/svg" width="112.811" height="135.997" viewBox="0 0 112.811 135.997">
  <g id="Group_1311" data-name="Group 1311" transform="translate(-329.478 -297.528)">
    <g id="Group_1309" data-name="Group 1309" transform="translate(332.414 297.528)">
      <path id="Path_842" data-name="Path 842" d="M340.1,413.764l13.654-20.122a142.163,142.163,0,0,0,20.39,11.768,51.118,51.118,0,0,0,22.007,4.939,34.7,34.7,0,0,0,10.78-1.526,27.063,27.063,0,0,0,7.9-3.953,16.3,16.3,0,0,0,4.851-5.569,13.476,13.476,0,0,0,1.617-6.2,9.915,9.915,0,0,0-2.425-6.738,18.254,18.254,0,0,0-6.467-4.581,52.714,52.714,0,0,0-9.522-3.054q-5.482-1.255-11.408-2.335-3.954-.716-9.163-1.707a100.244,100.244,0,0,1-10.779-2.694,65.624,65.624,0,0,1-10.959-4.492,40.026,40.026,0,0,1-9.7-7.006,32.323,32.323,0,0,1-6.917-10.061,33.472,33.472,0,0,1-2.6-13.743q0-11.5,4.671-19.133a35.374,35.374,0,0,1,11.947-12.038,50.226,50.226,0,0,1,16.168-6.2,86.8,86.8,0,0,1,17.157-1.8,90.256,90.256,0,0,1,14.731,1.078,65.546,65.546,0,0,1,12.037,3.144,67.05,67.05,0,0,1,10.869,5.21q5.3,3.145,11.408,7.455l-14.013,19.762a90.3,90.3,0,0,0-17.965-9.882,48.906,48.906,0,0,0-18.145-3.413,38.764,38.764,0,0,0-7.366.809,31.591,31.591,0,0,0-7.815,2.6,19.066,19.066,0,0,0-6.108,4.582,9.907,9.907,0,0,0-2.426,6.736,8.744,8.744,0,0,0,2.874,6.647,23.227,23.227,0,0,0,7.366,4.492,68.232,68.232,0,0,0,9.881,3.053q5.39,1.261,10.42,2.516,3.773.9,8.893,1.8a96.787,96.787,0,0,1,10.6,2.514,66.17,66.17,0,0,1,10.869,4.312,36.79,36.79,0,0,1,9.611,6.917,32.189,32.189,0,0,1,6.828,10.42,38.723,38.723,0,0,1,2.6,15,41,41,0,0,1-3.593,17.786,33.019,33.019,0,0,1-10.241,12.486,47.066,47.066,0,0,1-15.809,7.455,76.679,76.679,0,0,1-20.3,2.515A95.122,95.122,0,0,1,378.46,432a76.123,76.123,0,0,1-26.5-10.33Q346.208,418.076,340.1,413.764Z" transform="translate(-340.103 -297.528)" fill="#6fcfeb"/>
    </g>
    <g id="Group_1310" data-name="Group 1310" transform="translate(329.478 358.621)">
      <path id="Path_843" data-name="Path 843" d="M329.478,533.562l1.758-2.591a18.365,18.365,0,0,0,2.626,1.515,6.59,6.59,0,0,0,2.833.636,4.463,4.463,0,0,0,1.388-.2,3.481,3.481,0,0,0,1.018-.509,2.1,2.1,0,0,0,.625-.716,1.742,1.742,0,0,0,.208-.8,1.276,1.276,0,0,0-.313-.868,2.354,2.354,0,0,0-.832-.589,6.719,6.719,0,0,0-1.226-.393q-.706-.162-1.469-.3-.508-.093-1.179-.22a12.81,12.81,0,0,1-1.388-.347,8.378,8.378,0,0,1-1.411-.578,5.157,5.157,0,0,1-1.249-.9,4.172,4.172,0,0,1-.891-1.3,4.312,4.312,0,0,1-.336-1.769,4.638,4.638,0,0,1,.6-2.463,4.554,4.554,0,0,1,1.538-1.55,6.452,6.452,0,0,1,2.082-.8,11.108,11.108,0,0,1,2.209-.232,11.65,11.65,0,0,1,1.9.139,8.5,8.5,0,0,1,1.549.4,8.734,8.734,0,0,1,1.4.671c.455.271.945.589,1.469.961l-1.8,2.544a11.691,11.691,0,0,0-2.313-1.273,6.294,6.294,0,0,0-2.336-.439,5.041,5.041,0,0,0-.949.1,4.156,4.156,0,0,0-1.006.335,2.462,2.462,0,0,0-.786.591,1.274,1.274,0,0,0-.313.867,1.126,1.126,0,0,0,.37.856,2.972,2.972,0,0,0,.949.578,8.736,8.736,0,0,0,1.272.393q.694.163,1.342.324.485.116,1.145.232a12.553,12.553,0,0,1,1.364.323,8.52,8.52,0,0,1,1.4.556,4.708,4.708,0,0,1,1.238.89,4.137,4.137,0,0,1,.879,1.341,4.994,4.994,0,0,1,.335,1.931,5.285,5.285,0,0,1-.463,2.291,4.247,4.247,0,0,1-1.318,1.606,6.045,6.045,0,0,1-2.036.961,9.894,9.894,0,0,1-2.614.324,12.24,12.24,0,0,1-2.325-.2,10.146,10.146,0,0,1-1.839-.532,9.977,9.977,0,0,1-1.573-.8Q330.264,534.118,329.478,533.562Z" transform="translate(-329.478 -518.596)" fill="#0c0c0c"/>
      <path id="Path_844" data-name="Path 844" d="M433.991,519.6v16.909h-3.238v-8.558l-5.3,6.361-5.274-6.361v8.558h-3.238V519.6h.208l8.3,9.762,8.327-9.762Z" transform="translate(-392.772 -519.323)" fill="#0c0c0c"/>
      <path id="Path_845" data-name="Path 845" d="M512.951,536.509,521.6,519.6h.324l8.651,16.909h-3.516l-1.319-2.659h-7.98l-1.3,2.659Zm6.384-5.482h4.835l-2.406-5.112Z" transform="translate(-462.248 -519.323)" fill="#0c0c0c"/>
      <path id="Path_846" data-name="Path 846" d="M612.03,536.451h-3.238V519.52h7.692a6.371,6.371,0,0,1,2.375.428,5.284,5.284,0,0,1,1.842,1.2A5.5,5.5,0,0,1,621.895,523a6.288,6.288,0,0,1,.429,2.348,5.87,5.87,0,0,1-.962,3.354,5.368,5.368,0,0,1-2.56,2.059q2.134,2.821,4.216,5.69h-3.863q-1.015-1.319-1.983-2.659t-1.936-2.73H612.03Zm0-8.257h4.45a2.626,2.626,0,0,0,.91-.174,2.355,2.355,0,0,0,.842-.533,2.9,2.9,0,0,0,.611-.89,2.988,2.988,0,0,0,.242-1.249,5.025,5.025,0,0,0-.092-.879,2.9,2.9,0,0,0-.369-.971,2.4,2.4,0,0,0-.784-.787,2.506,2.506,0,0,0-1.36-.323h-4.45Z" transform="translate(-531.603 -519.265)" fill="#0c0c0c"/>
      <path id="Path_847" data-name="Path 847" d="M703.83,522.388H699v14.063h-3.239V522.388H690.9V519.52H703.83Z" transform="translate(-591.02 -519.265)" fill="#0c0c0c"/>
      <path id="Path_848" data-name="Path 848" d="M446.671,605.636v.638h-2.709v-3.762h.72v3.125Z" transform="translate(-412.324 -579.321)" fill="#0c0c0c"/>
      <path id="Path_849" data-name="Path 849" d="M462.744,606.284h-.72v-3.758h.72Z" transform="translate(-425.395 -579.332)" fill="#0c0c0c"/>
      <path id="Path_850" data-name="Path 850" d="M474.944,603.149v.93h1.814v.662h-1.814v1.532h-.72v-3.762h2.765v.638Z" transform="translate(-434.223 -579.321)" fill="#0c0c0c"/>
      <path id="Path_851" data-name="Path 851" d="M493.322,603.149v.94h1.819v.653h-1.819v.885h2.051v.647H492.6v-3.762h2.771v.638Z" transform="translate(-447.522 -579.321)" fill="#0c0c0c"/>
      <path id="Path_852" data-name="Path 852" d="M527.073,605.187a1.809,1.809,0,0,1-.3.408,1.994,1.994,0,0,1-.4.313,1.965,1.965,0,0,1-.473.2,1.914,1.914,0,0,1-.527.072,1.869,1.869,0,0,1-.756-.155,1.963,1.963,0,0,1-.619-.418,2,2,0,0,1-.42-.62,1.931,1.931,0,0,1,0-1.511,2,2,0,0,1,.42-.62,1.964,1.964,0,0,1,.619-.418,1.863,1.863,0,0,1,.756-.155,1.925,1.925,0,0,1,.527.072,1.981,1.981,0,0,1,.473.2,2.05,2.05,0,0,1,.4.313,1.893,1.893,0,0,1,.3.4l-.674.272a1.511,1.511,0,0,0-.192-.23,1.366,1.366,0,0,0-.244-.19,1.194,1.194,0,0,0-.283-.128,1.008,1.008,0,0,0-.309-.047,1.113,1.113,0,0,0-.48.106,1.261,1.261,0,0,0-.389.279,1.375,1.375,0,0,0-.262.41,1.252,1.252,0,0,0-.1.486,1.238,1.238,0,0,0,.1.487,1.376,1.376,0,0,0,.262.407,1.284,1.284,0,0,0,.389.28,1.109,1.109,0,0,0,.48.1,1.006,1.006,0,0,0,.309-.047,1.2,1.2,0,0,0,.283-.128,1.309,1.309,0,0,0,.244-.192,1.581,1.581,0,0,0,.192-.235Z" transform="translate(-469.826 -579.159)" fill="#0c0c0c"/>
      <path id="Path_853" data-name="Path 853" d="M547.6,605.636v.638h-2.709v-3.762h.72v3.125Z" transform="translate(-485.359 -579.321)" fill="#0c0c0c"/>
      <path id="Path_854" data-name="Path 854" d="M563.668,606.284h-.719v-3.758h.719Z" transform="translate(-498.429 -579.332)" fill="#0c0c0c"/>
      <path id="Path_855" data-name="Path 855" d="M578.342,606.284l-2.473-2.236v2.236h-.72v-3.758h.077L577.7,604.8v-2.273h.719v3.758Z" transform="translate(-507.258 -579.332)" fill="#0c0c0c"/>
      <path id="Path_856" data-name="Path 856" d="M597.3,606.284h-.72v-3.758h.72Z" transform="translate(-522.763 -579.332)" fill="#0c0c0c"/>
      <path id="Path_857" data-name="Path 857" d="M611.686,605.187a1.822,1.822,0,0,1-.3.408,1.994,1.994,0,0,1-.4.313,1.965,1.965,0,0,1-.472.2,1.916,1.916,0,0,1-.527.072,1.867,1.867,0,0,1-.756-.155,1.954,1.954,0,0,1-.619-.418,1.994,1.994,0,0,1-.42-.62,1.935,1.935,0,0,1,0-1.511,1.994,1.994,0,0,1,.42-.62,1.955,1.955,0,0,1,.619-.418,1.861,1.861,0,0,1,.756-.155,1.927,1.927,0,0,1,.527.072,1.98,1.98,0,0,1,.472.2,2.049,2.049,0,0,1,.4.313,1.908,1.908,0,0,1,.3.4l-.674.272a1.511,1.511,0,0,0-.192-.23,1.372,1.372,0,0,0-.244-.19,1.194,1.194,0,0,0-.283-.128,1.006,1.006,0,0,0-.308-.047,1.114,1.114,0,0,0-.48.106,1.261,1.261,0,0,0-.389.279,1.375,1.375,0,0,0-.262.41,1.251,1.251,0,0,0-.1.486,1.237,1.237,0,0,0,.1.487,1.376,1.376,0,0,0,.262.407,1.284,1.284,0,0,0,.389.28,1.11,1.11,0,0,0,.48.1,1,1,0,0,0,.308-.047,1.2,1.2,0,0,0,.283-.128,1.313,1.313,0,0,0,.244-.192,1.58,1.58,0,0,0,.192-.235Z" transform="translate(-531.056 -579.159)" fill="#0c0c0c"/>
    </g>
  </g>
</svg>
