<svg width="50" height="50" viewBox="0 0 50 50" fill="none" xmlns="http://www.w3.org/2000/svg">
<path d="M25.0004 0.012207C14.5145 0.012207 5.96191 8.56475 5.96191 19.0507C5.96191 23.2098 7.27988 27.1639 9.76973 30.4736L23.8287 49.4146C24.0335 49.7073 24.5902 50.0003 25.0004 50.0003C25.4398 50.0003 25.9672 49.6781 26.1721 49.4145C26.2304 49.3265 40.3775 30.2686 40.4948 30.0928C40.5241 30.0928 40.5241 30.0928 40.5241 30.0637C42.8088 26.8417 44.0388 23.034 44.0388 19.0507C44.0389 8.56485 35.4863 0.012207 25.0004 0.012207ZM25.0004 29.3021C19.3477 29.3021 14.7489 24.7036 14.7489 19.0507C14.7489 13.3978 19.3477 8.79922 25.0004 8.79922C30.6531 8.79922 35.2519 13.3978 35.2519 19.0507C35.2519 24.7036 30.6531 29.3021 25.0004 29.3021Z" fill="#FFD100"/>
<path d="M25 0V8.78701C30.6527 8.78701 35.2515 13.3855 35.2515 19.0385C35.2515 24.6914 30.6527 29.2899 25 29.2899V49.9881C25.4395 49.9881 25.9668 49.6659 26.1717 49.4022C26.23 49.3143 40.3772 30.2563 40.4944 30.0806C40.5237 30.0806 40.5237 30.0806 40.5237 30.0515C42.8084 26.8295 44.0384 23.0218 44.0384 19.0385C44.0385 8.55254 35.4859 0 25 0Z" fill="#FFD100"/>
</svg>
